# xmcd CD database file
#
# Track frame offsets:
#	150
#	32994
#	59052
#	91288
#	133602
#	161898
#	191316
#	227035
#	258056
#
# Disc length: 3866 seconds
#
# Revision: 0
# Processed by: cddbd v1.5.2PL0 Copyright (c) Steve Scherf et al.
# Submitted via: CDex 1.70beta2
#
DISCID=770f1809
DTITLE=Carlos Garnett - Moon Shadow
DYEAR=1999
DGENRE=Jazz
TTITLE0=Moon Shadow
TTITLE1=Giant Steps
TTITLE2=Delilah
TTITLE3=Manha de Carnaval
TTITLE4=McCoy Next Block
TTITLE5=The Shadow of Your Smile
TTITLE6=My Favorite Things
TTITLE7=Salsa Blue
TTITLE8=Softly As In a Morning Sunrise 
EXTD=YEAR: 1999
EXTT0=
EXTT1=
EXTT2=
EXTT3=
EXTT4=
EXTT5=
EXTT6=
EXTT7=
EXTT8=
PLAYORDER=
